<svg width="1200" height="675" viewBox="0 0 1200 675" fill="none" xmlns="http://www.w3.org/2000/svg">
  <rect width="1200" height="675" fill="#0A0A0F"/>
  <rect x="45" y="45" width="1110" height="585" rx="24" fill="#111827" stroke="#374151"/>
  <rect x="100" y="120" width="320" height="320" rx="20" fill="#1E293B" stroke="#64748B"/>
  <rect x="470" y="120" width="320" height="320" rx="20" fill="#1E293B" stroke="#64748B"/>
  <rect x="840" y="120" width="260" height="320" rx="20" fill="#1E293B" stroke="#64748B"/>
  <text x="175" y="290" fill="#CBD5E1" font-size="44" font-family="Helvetica, Arial, sans-serif">fpga</text>
  <text x="525" y="290" fill="#CBD5E1" font-size="44" font-family="Helvetica, Arial, sans-serif">axi</text>
  <text x="900" y="290" fill="#CBD5E1" font-size="40" font-family="Helvetica, Arial, sans-serif">arm</text>
  <line x1="420" y1="280" x2="470" y2="280" stroke="#A78BFA" stroke-width="8"/>
  <line x1="790" y1="280" x2="840" y2="280" stroke="#A78BFA" stroke-width="8"/>
  <circle cx="445" cy="280" r="9" fill="#A78BFA"/>
  <circle cx="815" cy="280" r="9" fill="#A78BFA"/>
  <path d="M120 500H1080" stroke="#334155" stroke-width="3"/>
  <path d="M130 500C180 480 210 430 260 430C310 430 340 500 390 500C440 500 470 450 520 450C570 450 600 500 650 500C700 500 730 470 780 470C830 470 860 500 910 500C960 500 990 460 1040 460" stroke="#22D3EE" stroke-width="6" stroke-linecap="round"/>
  <text x="100" y="585" fill="#E2E8F0" font-size="46" font-family="Helvetica, Arial, sans-serif">zynq fpga data acquisition</text>
</svg>
